<?xml version="1.0" encoding="UTF-8" standalone="no"?>
<!-- Created with Inkscape (http://www.inkscape.org/) -->

<svg
   width="512"
   height="128"
   viewBox="0 0 512 128"
   version="1.1"
   id="svg5"
   inkscape:version="1.1.2 (b8e25be8, 2022-02-05)"
   sodipodi:docname="tibe_logo_full_yellow_white.svg"
   xmlns:inkscape="http://www.inkscape.org/namespaces/inkscape"
   xmlns:sodipodi="http://sodipodi.sourceforge.net/DTD/sodipodi-0.dtd"
   xmlns="http://www.w3.org/2000/svg"
   xmlns:svg="http://www.w3.org/2000/svg">
  <sodipodi:namedview
     id="namedview7"
     pagecolor="#ffffff"
     bordercolor="#666666"
     borderopacity="1.0"
     inkscape:pageshadow="2"
     inkscape:pageopacity="0.0"
     inkscape:pagecheckerboard="0"
     inkscape:document-units="px"
     showgrid="false"
     inkscape:zoom="1.4932437"
     inkscape:cx="159.71941"
     inkscape:cy="256.48861"
     inkscape:window-width="1792"
     inkscape:window-height="1120"
     inkscape:window-x="0"
     inkscape:window-y="0"
     inkscape:window-maximized="0"
     inkscape:current-layer="layer1" />
  <defs
     id="defs2" />
  <g
     inkscape:label="Layer 1"
     inkscape:groupmode="layer"
     id="layer1">
    <path
       id="rect844"
       style="fill:#ffd437;fill-opacity:1;stroke-width:0.0965188"
       d="m 115.49633,1.522 c -0.19712,0 -0.38974,0.019103 -0.58393,0.030983 -0.4518,0.00942 -0.90652,0.036337 -1.36708,0.1039135 L 11.008253,16.701958 c -0.513664,0.04224 -1.0180288,0.114936 -1.5100853,0.22165 l -0.1634971,0.02383 c -5.5487765,0.814157 -9.44838611,5.648513 -8.90034983,10.923314 -0.003335,0.114765 -0.0171605,0.226646 -0.0171605,0.342247 v 86.704881 c 0,6.40418 5.15391383,11.55968 11.55634673,11.55968 H 113.78223 c 0.29681,0 0.58743,-0.0226 0.87849,-0.0443 0.27593,0.0243 0.55353,0.0443 0.83561,0.0443 5.45282,0 9.84223,-4.60873 9.84223,-10.33368 v -1.226 -86.704875 -16.357327 c 0,-1.2066 -0.20551,-2.3582106 -0.56436,-3.4329595 C 124.32555,6.9605473 123.54611,5.6634662 122.5143,4.6022262 120.73118,2.7005027 118.25065,1.522 115.49633,1.522 Z M 93.05287,21.534414 c 1.15374,0 2.210339,0.404811 3.054014,1.079653 l 14.257156,9.983327 c 0.60578,0.397317 1.1224,0.923884 1.51295,1.545832 0.005,0.0091 0.0108,0.0189 0.0162,0.02812 0.0788,0.127298 0.15316,0.25762 0.22118,0.392298 0.0172,0.03403 0.0316,0.06905 0.0481,0.103441 0.0531,0.110915 0.10474,0.222658 0.15014,0.337956 0.0237,0.06019 0.0427,0.121571 0.0643,0.182565 0.031,0.08813 0.0637,0.175176 0.09,0.265503 0.003,0.01043 0.006,0.02097 0.009,0.03147 0.0245,0.08496 0.0422,0.171797 0.0625,0.257878 0.007,0.03329 0.0166,0.06623 0.0237,0.09962 0.005,0.02613 0.014,0.05142 0.019,0.0777 0.004,0.02091 0.009,0.04153 0.0134,0.06243 3e-5,2.44e-4 -7e-5,7.33e-4 0,9.76e-4 0.19,1.010101 0.0792,2.050953 -0.30317,2.988232 v 0.002 c -0.0615,0.150468 -0.13001,0.298327 -0.20545,0.442824 -0.008,0.01773 -0.0197,0.03434 -0.0291,0.05195 -0.0675,0.125683 -0.13889,0.249221 -0.21688,0.369418 -0.0182,0.02805 -0.0386,0.05433 -0.0572,0.08199 -0.072,0.106234 -0.14527,0.211563 -0.22545,0.312693 -0.0312,0.03934 -0.0656,0.0756 -0.0977,0.113925 -0.0725,0.08606 -0.14444,0.172387 -0.22308,0.254063 -0.0186,0.01936 -0.0384,0.03722 -0.0572,0.05625 -0.0159,0.01607 -0.0326,0.02995 -0.0487,0.04576 -0.0222,0.02179 -0.0455,0.0425 -0.0681,0.06388 -0.0597,0.05636 -0.11647,0.11494 -0.17923,0.168741 -0.0183,0.01572 -0.0378,0.02984 -0.0562,0.04529 -0.0535,0.04489 -0.10948,0.08539 -0.16445,0.127747 -0.0536,0.04107 -0.10497,0.08459 -0.16017,0.123458 -0.004,0.0034 -0.008,0.0071 -0.0133,0.01054 -9.7e-4,9.77e-4 -0.002,0.002 -0.004,0.0028 L 95.968335,51.41014 c -0.819756,0.609744 -1.824166,0.972402 -2.915303,0.972402 -2.766246,0 -4.993101,-2.303472 -4.993101,-5.16517 V 42.124654 H 85.43778 c -0.18617,0 -0.369304,-0.01207 -0.550074,-0.03241 H 23.18236 v 20.59492 h 17.492772 c 0.528702,0 1.036854,0.08506 1.514374,0.241197 2.035061,0.652072 3.505419,2.608853 3.505419,4.933984 V 101.13409 H 65.600116 V 67.852209 c 0,-0.192085 0.0119,-0.380707 0.03147,-0.567235 0.240216,-2.626854 2.36461,-4.669437 4.968788,-4.669437 H 87.859103 V 59.28363 c 0,-2.861699 2.226853,-5.165646 4.993099,-5.165646 2.766248,0 4.993577,2.303947 4.993577,5.165646 v 8.497554 c 0,2.8617 -2.227329,5.16565 -4.993577,5.16565 H 75.586316 v 33.349096 0.007 c -1.07e-4,0.17771 -0.0089,0.35327 -0.02574,0.52625 -0.253314,2.61063 -2.371054,4.63558 -4.963546,4.63558 h -0.0038 -29.891388 -4.78e-4 c -0.322851,0 -0.63739,-0.0339 -0.94285,-0.0938 -0.02148,-0.004 -0.04395,-0.005 -0.0653,-0.0108 h -4.78e-4 c -0.05591,-0.0119 -0.109258,-0.0303 -0.164451,-0.0438 -0.105583,-0.0262 -0.211787,-0.0504 -0.314601,-0.0833 -0.156178,-0.0501 -0.309436,-0.10757 -0.458554,-0.17254 -2.44e-4,-2.5e-4 -4.65e-4,-2.5e-4 -9.54e-4,-4.9e-4 -1.793346,-0.7821 -3.045911,-2.61421 -3.045911,-4.76048 V 73.017855 H 18.422351 c -1.246415,0 -2.380678,-0.470748 -3.253737,-1.246486 -1.198399,-0.941849 -1.97293,-2.428239 -1.97293,-4.112212 V 37.25253 c 0,-1.364942 0.51073,-2.599009 1.340868,-3.520667 0.912782,-1.199897 2.326818,-1.971023 3.923933,-1.971023 h 69.599284 v -5.060778 c 0,-2.8617 2.226855,-5.165648 4.993101,-5.165648 z" />
    <text
       xml:space="preserve"
       style="font-style:normal;font-weight:normal;font-size:112.818px;line-height:1.25;font-family:sans-serif;fill:#ffffff;fill-opacity:1;stroke:none;stroke-width:0.940148"
       x="148.62297"
       y="102.16489"
       id="text15885-7"><tspan
         sodipodi:role="line"
         id="tspan15883-8"
         x="148.62297"
         y="102.16489"
         style="font-style:normal;font-variant:normal;font-weight:500;font-stretch:normal;font-size:112.818px;font-family:'Signika Negative';-inkscape-font-specification:'Signika Negative Medium';fill:#ffffff;fill-opacity:1;stroke-width:0.940148">Tibecvp</tspan></text>
  </g>
</svg>
